<svg xmlns="http://www.w3.org/2000/svg" viewBox="0 0 128 128">
  <defs>
    <linearGradient id="shieldGrad" x1="0" y1="0" x2="0" y2="1">
      <stop offset="0%" stop-color="#6aaef7"/>
      <stop offset="40%" stop-color="#2b6de8"/>
      <stop offset="100%" stop-color="#1a4fbb"/>
    </linearGradient>
    <linearGradient id="shine" x1="0" y1="0" x2="0" y2="1">
      <stop offset="0%" stop-color="white" stop-opacity="0.55"/>
      <stop offset="100%" stop-color="white" stop-opacity="0.05"/>
    </linearGradient>
  </defs>
  <!-- Shadow -->
  <path d="M64 12 L112 28 L112 76 L64 116 L16 76 L16 28 Z" fill="rgba(0,0,0,0.15)" transform="translate(2,3)"/>
  <!-- Shield body -->
  <path d="M64 12 L112 28 L112 76 L64 116 L16 76 L16 28 Z" fill="url(#shieldGrad)"/>
  <!-- Shine -->
  <path d="M64 14 L110 29 L110 52 L64 52 L18 52 L18 29 Z" fill="url(#shine)"/>
  <!-- Checkmark -->
  <path d="M42 62 L56 78 L88 46" stroke="white" stroke-width="10" stroke-linecap="round" stroke-linejoin="round" fill="none" opacity="0.95"/>
  <!-- Border highlight -->
  <path d="M64 12 L112 28 L112 76 L64 116 L16 76 L16 28 Z" fill="none" stroke="rgba(255,255,255,0.25)" stroke-width="2"/>
</svg>
